<?xml version="1.0" encoding="UTF-8"?>
<!DOCTYPE svg PUBLIC "-//W3C//DTD SVG 1.1//EN" "http://www.w3.org/Graphics/SVG/1.1/DTD/svg11.dtd">
<svg xmlns="http://www.w3.org/2000/svg" version="1.1" width="1000px" height="1000px" style="shape-rendering:geometricPrecision; text-rendering:geometricPrecision; image-rendering:optimizeQuality; fill-rule:evenodd; clip-rule:evenodd" xmlns:xlink="http://www.w3.org/1999/xlink">
<g><path style="opacity:0.924" fill="#fe0000" d="M 862.5,230.5 C 877.742,232.23 883.908,240.563 881,255.5C 879.6,258.902 877.433,261.736 874.5,264C 750.46,313.319 635.794,377.985 530.5,458C 462.403,513.429 400.237,574.929 344,642.5C 321.286,670.212 298.953,698.212 277,726.5C 246.386,768.781 215.386,810.781 184,852.5C 173.128,864.489 161.461,865.489 149,855.5C 145.453,850.192 143.953,844.359 144.5,838C 148.718,809.854 152.885,781.688 157,753.5C 159.253,732.12 158.92,710.786 156,689.5C 150.952,663.07 139.286,640.07 121,620.5C 113.636,612.802 105.97,605.469 98,598.5C 91.5874,582.993 96.5874,573.326 113,569.5C 119.029,570.265 124.196,572.765 128.5,577C 151.578,597.026 169.411,620.859 182,648.5C 193.229,679.89 197.229,712.223 194,745.5C 192.88,758.573 191.547,771.573 190,784.5C 248.306,700.499 312.306,620.832 382,545.5C 464.565,458.543 557.732,385.709 661.5,327C 726.27,289.946 793.27,257.78 862.5,230.5 Z"/></g>
</svg>
