<?xml version="1.0" encoding="UTF-8"?>
<!DOCTYPE svg PUBLIC "-//W3C//DTD SVG 1.1//EN" "http://www.w3.org/Graphics/SVG/1.1/DTD/svg11.dtd">
<svg xmlns="http://www.w3.org/2000/svg" version="1.1" width="1000px" height="1000px" style="shape-rendering:geometricPrecision; text-rendering:geometricPrecision; image-rendering:optimizeQuality; fill-rule:evenodd; clip-rule:evenodd" xmlns:xlink="http://www.w3.org/1999/xlink">
<g><path style="opacity:0.926" fill="#fe0000" d="M 638.5,201.5 C 697.509,199.049 754.843,207.549 810.5,227C 904.244,263.613 944.744,332.113 932,432.5C 927.258,468.469 918.591,503.469 906,537.5C 872.393,624.959 828.726,706.626 775,782.5C 767.622,790.576 759.122,792.076 749.5,787C 742.677,781.208 740.511,774.041 743,765.5C 783.401,707.401 818.734,646.068 849,581.5C 870.957,535.296 886.29,486.963 895,436.5C 910.214,348.391 876.048,289.225 792.5,259C 748.861,244.533 704.028,237.366 658,237.5C 541.042,239.441 432.875,270.941 333.5,332C 251.049,386.112 185.549,455.945 137,541.5C 115.742,579.274 102.076,619.607 96,662.5C 93.87,682.62 95.87,702.287 102,721.5C 109.135,739.97 121.302,754.136 138.5,764C 158.869,775.123 180.536,782.456 203.5,786C 245.966,792.468 288.633,794.135 331.5,791C 433.331,783.056 533.498,765.556 632,738.5C 646.401,740.983 652.068,749.316 649,763.5C 647.6,766.902 645.433,769.736 642.5,772C 536.264,802.651 427.931,821.317 317.5,828C 272.441,830.559 227.774,827.559 183.5,819C 153.114,813.135 125.781,800.802 101.5,782C 81.8814,764.604 69.0481,743.104 63,717.5C 56.1523,679.219 58.8189,641.553 71,604.5C 87.5865,554.323 111.253,507.99 142,465.5C 248.599,320.8 391.432,234.966 570.5,208C 593.24,204.959 615.906,202.792 638.5,201.5 Z"/></g>
</svg>
